{
  "accessors": [
    {
      "bufferView": 3,
      "componentType": 5126,
      "count": 1588,
      "max": [
        2.222416877746582,
        3.394585371017456,
        0.6243873834609985
      ],
      "min": [
        -2.146287202835083,
        0.16076874732971191,
        -0.85869961977005
      ],
      "type": "VEC3"
    },
    {
      "bufferView": 3,
      "byteOffset": 19056,
      "componentType": 5126,
      "count": 1588,
      "max": [
        0.999976634979248,
        0.9999998807907104,
        1.0
      ],
      "min": [
        -0.999976634979248,
        -1.0,
        -1.0
      ],
      "type": "VEC3"
    },
    {
      "bufferView": 2,
      "componentType": 5126,
      "count": 1588,
      "max": [
        1.000000238418579,
        1.0000001192092896
      ],
      "min": [
        0.0,
        0.0
      ],
      "type": "VEC2"
    },
    {
      "bufferView": 1,
      "componentType": 5125,
      "count": 5250,
      "type": "SCALAR"
    },
    {
      "bufferView": 3,
      "byteOffset": 38112,
      "componentType": 5126,
      "count": 242,
      "max": [
        0.38097313046455383,
        2.8872716426849365,
        0.9505650997161865
      ],
      "min": [
        -0.3348904252052307,
        2.432337522506714,
        0.10243010520935059
      ],
      "type": "VEC3"
    },
    {
      "bufferView": 3,
      "byteOffset": 41016,
      "componentType": 5126,
      "count": 242,
      "max": [
        0.9960867166519165,
        0.9998317956924438,
        1.0
      ],
      "min": [
        -0.9977086782455444,
        -0.9998066425323486,
        -0.9999994039535522
      ],
      "type": "VEC3"
    },
    {
      "bufferView": 2,
      "byteOffset": 12704,
      "componentType": 5126,
      "count": 242,
      "max": [
        0.9675500988960266,
        0.28697019815444946
      ],
      "min": [
        0.7684695720672607,
        0.11897677183151245
      ],
      "type": "VEC2"
    },
    {
      "bufferView": 1,
      "byteOffset": 21000,
      "componentType": 5125,
      "count": 1152,
      "type": "SCALAR"
    },
    {
      "bufferView": 3,
      "byteOffset": 43920,
      "componentType": 5126,
      "count": 195,
      "max": [
        0.04271930456161499,
        0.1814574897289276,
        0.6680793166160583
      ],
      "min": [
        -0.9547423124313354,
        -0.1814575046300888,
        -0.6226540803909302
      ],
      "type": "VEC3"
    },
    {
      "bufferView": 3,
      "byteOffset": 46260,
      "componentType": 5126,
      "count": 195,
      "max": [
        0.9999115467071533,
        0.9999982118606567,
        0.9995919466018677
      ],
      "min": [
        -0.955043613910675,
        -0.9999982118606567,
        -0.9973407983779907
      ],
      "type": "VEC3"
    },
    {
      "bufferView": 2,
      "byteOffset": 14640,
      "componentType": 5126,
      "count": 195,
      "max": [
        0.740317702293396,
        0.4075012803077698
      ],
      "min": [
        0.5325345396995544,
        0.21060916781425476
      ],
      "type": "VEC2"
    },
    {
      "bufferView": 1,
      "byteOffset": 25608,
      "componentType": 5125,
      "count": 576,
      "type": "SCALAR"
    },
    {
      "bufferView": 3,
      "byteOffset": 48600,
      "componentType": 5126,
      "count": 194,
      "max": [
        1.1132946014404297,
        0.1814574897289276,
        0.6700615286827087
      ],
      "min": [
        0.10402560234069824,
        -0.1814575046300888,
        -0.6216700077056885
      ],
      "type": "VEC3"
    },
    {
      "bufferView": 3,
      "byteOffset": 50928,
      "componentType": 5126,
      "count": 194,
      "max": [
        0.9608473777770996,
        0.9999983310699463,
        0.9988086223602295
      ],
      "min": [
        -0.9999762773513794,
        -0.9999983310699463,
        -0.9986117482185364
      ],
      "type": "VEC3"
    },
    {
      "bufferView": 2,
      "byteOffset": 16200,
      "componentType": 5126,
      "count": 194,
      "max": [
        0.7413976192474365,
        0.4075012803077698
      ],
      "min": [
        0.5325345396995544,
        0.20907065272331238
      ],
      "type": "VEC2"
    },
    {
      "bufferView": 1,
      "byteOffset": 27912,
      "componentType": 5125,
      "count": 576,
      "type": "SCALAR"
    },
    {
      "bufferView": 3,
      "byteOffset": 53256,
      "componentType": 5126,
      "count": 40,
      "max": [
        0.37175557017326355,
        3.2188966274261475,
        0.4274978041648865
      ],
      "min": [
        -0.28557634353637695,
        2.7073707580566406,
        0.31577619910240173
      ],
      "type": "VEC3"
    },
    {
      "bufferView": 3,
      "byteOffset": 53736,
      "componentType": 5126,
      "count": 40,
      "max": [
        0.4440312087535858,
        0.37373167276382446,
        0.9961053729057312
      ],
      "min": [
        -0.4190337657928467,
        -0.20972637832164764,
        0.8848444223403931
      ],
      "type": "VEC3"
    },
    {
      "bufferView": 2,
      "byteOffset": 17752,
      "componentType": 5126,
      "count": 40,
      "max": [
        0.9333907961845398,
        0.9505413174629211
      ],
      "min": [
        0.7070807218551636,
        0.5795910954475403
      ],
      "type": "VEC2"
    },
    {
      "bufferView": 1,
      "byteOffset": 30216,
      "componentType": 5125,
      "count": 96,
      "type": "SCALAR"
    },
    {
      "bufferView": 3,
      "byteOffset": 54216,
      "componentType": 5126,
      "count": 537,
      "max": [
        0.736696720123291,
        2.565805673599243,
        0.8586994409561157
      ],
      "min": [
        -0.5946832299232483,
        0.17577099800109863,
        0.08726036548614502
      ],
      "type": "VEC3"
    },
    {
      "bufferView": 3,
      "byteOffset": 60660,
      "componentType": 5126,
      "count": 537,
      "max": [
        0.9999644160270691,
        0.9978731870651245,
        0.999976634979248
      ],
      "min": [
        -0.9997841715812683,
        -0.9980491995811462,
        -1.0
      ],
      "type": "VEC3"
    },
    {
      "bufferView": 2,
      "byteOffset": 18072,
      "componentType": 5126,
      "count": 537,
      "max": [
        1.000000238418579,
        1.0000001192092896
      ],
      "min": [
        0.0,
        -0.023822039365768433
      ],
      "type": "VEC2"
    },
    {
      "bufferView": 1,
      "byteOffset": 30600,
      "componentType": 5125,
      "count": 1164,
      "type": "SCALAR"
    },
    {
      "bufferView": 5,
      "componentType": 5126,
      "count": 17,
      "max": [
        1.0,
        0.9999995827674866,
        0.8882409334182739,
        0.0,
        0.9994216561317444,
        1.0,
        0.2630555033683777,
        0.0,
        0.07188515365123749,
        0.9475271701812744,
        1.0,
        0.0,
        2.2657241821289063,
        0.37619680166244507,
        0.015148208476603031,
        1.0
      ],
      "min": [
        -0.25876471400260925,
        -0.9994216561317444,
        -0.9310039281845093,
        0.0,
        -0.9999995827674866,
        -0.0008548646001145244,
        -0.006826761178672314,
        0.0,
        -0.0485718809068203,
        -6.473510616444855e-09,
        -0.4558499753475189,
        0.0,
        -2.2348203659057617,
        -2.376476764678955,
        -0.47076308727264404,
        1.0
      ],
      "type": "MAT4"
    },
    {
      "bufferView": 0,
      "componentType": 5123,
      "count": 1588,
      "type": "VEC4"
    },
    {
      "bufferView": 4,
      "componentType": 5126,
      "count": 1588,
      "max": [
        1.0,
        0.4969858229160309,
        0.32370612025260925,
        0.20082110166549683
      ],
      "min": [
        0.0,
        0.0,
        0.0,
        0.0
      ],
      "type": "VEC4"
    },
    {
      "bufferView": 0,
      "byteOffset": 12704,
      "componentType": 5123,
      "count": 242,
      "type": "VEC4"
    },
    {
      "bufferView": 4,
      "byteOffset": 25408,
      "componentType": 5126,
      "count": 242,
      "max": [
        1.0,
        0.0,
        0.0,
        0.0
      ],
      "min": [
        1.0,
        0.0,
        0.0,
        0.0
      ],
      "type": "VEC4"
    },
    {
      "bufferView": 0,
      "byteOffset": 14640,
      "componentType": 5123,
      "count": 195,
      "type": "VEC4"
    },
    {
      "bufferView": 4,
      "byteOffset": 29280,
      "componentType": 5126,
      "count": 195,
      "max": [
        1.0,
        0.15949951112270355,
        0.0,
        0.0
      ],
      "min": [
        0.8405004739761353,
        0.0,
        0.0,
        0.0
      ],
      "type": "VEC4"
    },
    {
      "bufferView": 0,
      "byteOffset": 16200,
      "componentType": 5123,
      "count": 194,
      "type": "VEC4"
    },
    {
      "bufferView": 4,
      "byteOffset": 32400,
      "componentType": 5126,
      "count": 194,
      "max": [
        1.0,
        0.38067910075187683,
        0.0,
        0.0
      ],
      "min": [
        0.6193209290504456,
        0.0,
        0.0,
        0.0
      ],
      "type": "VEC4"
    },
    {
      "bufferView": 0,
      "byteOffset": 17752,
      "componentType": 5123,
      "count": 40,
      "type": "VEC4"
    },
    {
      "bufferView": 4,
      "byteOffset": 35504,
      "componentType": 5126,
      "count": 40,
      "max": [
        1.0,
        0.0,
        0.0,
        0.0
      ],
      "min": [
        1.0,
        0.0,
        0.0,
        0.0
      ],
      "type": "VEC4"
    },
    {
      "bufferView": 0,
      "byteOffset": 18072,
      "componentType": 5123,
      "count": 537,
      "type": "VEC4"
    },
    {
      "bufferView": 4,
      "byteOffset": 36144,
      "componentType": 5126,
      "count": 537,
      "max": [
        1.0,
        0.46527302265167236,
        0.22742898762226105,
        0.057825855910778046
      ],
      "min": [
        0.39065396785736084,
        0.0,
        0.0,
        0.0
      ],
      "type": "VEC4"
    }
  ],
  "asset": {
    "extras": {
      "author": "ald (https://sketchfab.com/poopymanoise)",
      "license": "CC-BY-4.0 (http://creativecommons.org/licenses/by/4.0/)",
      "source": "https://sketchfab.com/3d-models/club-penguin-rig-10-b27bda821613493c96090f80c95378f4",
      "title": "Club Penguin rig 1.0"
    },
    "generator": "Sketchfab-12.68.0",
    "version": "2.0"
  },
  "bufferViews": [
    {
      "buffer": 0,
      "byteLength": 22368,
      "byteStride": 8,
      "name": "shortBufferViews",
      "target": 34962
    },
    {
      "buffer": 0,
      "byteLength": 35256,
      "byteOffset": 22368,
      "name": "floatBufferViews",
      "target": 34963
    },
    {
      "buffer": 0,
      "byteLength": 22368,
      "byteOffset": 57624,
      "byteStride": 8,
      "name": "floatBufferViews",
      "target": 34962
    },
    {
      "buffer": 0,
      "byteLength": 67104,
      "byteOffset": 79992,
      "byteStride": 12,
      "name": "floatBufferViews",
      "target": 34962
    },
    {
      "buffer": 0,
      "byteLength": 44736,
      "byteOffset": 147096,
      "byteStride": 16,
      "name": "floatBufferViews",
      "target": 34962
    },
    {
      "buffer": 0,
      "byteLength": 1088,
      "byteOffset": 191832,
      "name": "floatBufferViews"
    }
  ],
  "buffers": [
    {
      "byteLength": 192920,
      "uri": "scene.bin"
    }
  ],
  "images": [
    {
      "uri": "textures/Material.002_baseColor.png"
    }
  ],
  "materials": [
    {
      "doubleSided": true,
      "name": "Material.002",
      "pbrMetallicRoughness": {
        "baseColorTexture": {
          "index": 0
        },
        "metallicFactor": 0.0
      }
    },
    {
      "doubleSided": true,
      "name": "Material.004",
      "pbrMetallicRoughness": {
        "baseColorTexture": {
          "index": 0
        }
      }
    },
    {
      "doubleSided": true,
      "name": "Material.005",
      "pbrMetallicRoughness": {
        "baseColorTexture": {
          "index": 0
        }
      }
    },
    {
      "doubleSided": true,
      "name": "Material.001",
      "pbrMetallicRoughness": {
        "baseColorTexture": {
          "index": 0
        }
      }
    },
    {
      "doubleSided": true,
      "emissiveFactor": [
        1.0,
        1.0,
        1.0
      ],
      "name": "Material.003",
      "pbrMetallicRoughness": {
        "baseColorTexture": {
          "index": 0
        }
      }
    }
  ],
  "meshes": [
    {
      "name": "Object_0",
      "primitives": [
        {
          "attributes": {
            "JOINTS_0": 25,
            "NORMAL": 1,
            "POSITION": 0,
            "TEXCOORD_0": 2,
            "WEIGHTS_0": 26
          },
          "indices": 3,
          "material": 0,
          "mode": 4
        }
      ]
    },
    {
      "name": "Object_1",
      "primitives": [
        {
          "attributes": {
            "JOINTS_0": 27,
            "NORMAL": 5,
            "POSITION": 4,
            "TEXCOORD_0": 6,
            "WEIGHTS_0": 28
          },
          "indices": 7,
          "material": 1,
          "mode": 4
        }
      ]
    },
    {
      "name": "Object_2",
      "primitives": [
        {
          "attributes": {
            "JOINTS_0": 29,
            "NORMAL": 9,
            "POSITION": 8,
            "TEXCOORD_0": 10,
            "WEIGHTS_0": 30
          },
          "indices": 11,
          "material": 2,
          "mode": 4
        }
      ]
    },
    {
      "name": "Object_3",
      "primitives": [
        {
          "attributes": {
            "JOINTS_0": 31,
            "NORMAL": 13,
            "POSITION": 12,
            "TEXCOORD_0": 14,
            "WEIGHTS_0": 32
          },
          "indices": 15,
          "material": 2,
          "mode": 4
        }
      ]
    },
    {
      "name": "Object_4",
      "primitives": [
        {
          "attributes": {
            "JOINTS_0": 33,
            "NORMAL": 17,
            "POSITION": 16,
            "TEXCOORD_0": 18,
            "WEIGHTS_0": 34
          },
          "indices": 19,
          "material": 3,
          "mode": 4
        }
      ]
    },
    {
      "name": "Object_5",
      "primitives": [
        {
          "attributes": {
            "JOINTS_0": 35,
            "NORMAL": 21,
            "POSITION": 20,
            "TEXCOORD_0": 22,
            "WEIGHTS_0": 36
          },
          "indices": 23,
          "material": 4,
          "mode": 4
        }
      ]
    }
  ],
  "nodes": [
    {
      "children": [
        1
      ],
      "matrix": [
        1.0,
        0.0,
        0.0,
        0.0,
        0.0,
        2.220446049250313e-16,
        -1.0,
        0.0,
        0.0,
        1.0,
        2.220446049250313e-16,
        0.0,
        0.0,
        0.0,
        0.0,
        1.0
      ],
      "name": "Sketchfab_model"
    },
    {
      "children": [
        2
      ],
      "name": "root"
    },
    {
      "children": [
        3
      ],
      "matrix": [
        1.0,
        0.0,
        0.0,
        0.0,
        0.0,
        2.220446049250313e-16,
        1.0,
        0.0,
        0.0,
        -1.0,
        2.220446049250313e-16,
        0.0,
        0.0,
        0.0,
        0.0,
        1.0
      ],
      "name": "GLTF_SceneRootNode"
    },
    {
      "children": [
        4
      ],
      "matrix": [
        1.0,
        0.0,
        0.0,
        0.0,
        0.0,
        1.0,
        0.0,
        0.0,
        0.0,
        0.0,
        1.0,
        0.0,
        0.05382870137691498,
        0.21531479060649872,
        0.0,
        1.0
      ],
      "name": "Armature_24"
    },
    {
      "children": [
        5,
        7,
        9,
        11,
        13,
        15,
        17,
        6,
        8,
        10,
        12,
        14,
        16
      ],
      "name": "GLTF_created_0"
    },
    {
      "children": [
        18,
        30,
        32
      ],
      "name": "GLTF_created_0_rootJoint"
    },
    {
      "name": "Cube_18"
    },
    {
      "mesh": 0,
      "name": "Object_7",
      "skin": 0
    },
    {
      "name": "Cube.001_19"
    },
    {
      "mesh": 1,
      "name": "Object_9",
      "skin": 0
    },
    {
      "name": "Cube.002_20"
    },
    {
      "mesh": 2,
      "name": "Object_11",
      "skin": 0
    },
    {
      "name": "Cube.003_21"
    },
    {
      "mesh": 3,
      "name": "Object_13",
      "skin": 0
    },
    {
      "name": "Plane_22"
    },
    {
      "mesh": 4,
      "name": "Object_15",
      "skin": 0
    },
    {
      "name": "Plane.002_23"
    },
    {
      "mesh": 5,
      "name": "Object_17",
      "skin": 0
    },
    {
      "children": [
        19
      ],
      "name": "Bone_13"
    },
    {
      "children": [
        20
      ],
      "name": "Bone.001_12",
      "translation": [
        0.0,
        1.0,
        0.0
      ]
    },
    {
      "children": [
        21,
        22,
        26
      ],
      "name": "Bone.002_11",
      "translation": [
        0.0,
        0.5844258069992065,
        0.0
      ]
    },
    {
      "name": "Bone.003_2",
      "rotation": [
        0.012051855213940144,
        -1.6157044230262454e-27,
        -2.6760492227978647e-18,
        0.9999274015426636
      ],
      "scale": [
        1.0,
        0.9999999403953552,
        0.9999999403953552
      ],
      "translation": [
        0.0,
        0.5767360925674438,
        0.0
      ]
    },
    {
      "children": [
        23
      ],
      "name": "Bone.005_6",
      "rotation": [
        4.4335813242923905e-08,
        -5.0527340533790266e-08,
        0.6949800848960876,
        0.7190290093421936
      ],
      "translation": [
        -0.4539879858493805,
        0.4499882459640503,
        -1.9096102477078603e-08
      ]
    },
    {
      "children": [
        24
      ],
      "name": "Bone.006_5",
      "rotation": [
        5.411321613024711e-09,
        -2.2339500915791177e-08,
        -0.004909700248390436,
        0.9999879598617554
      ],
      "translation": [
        7.078051567077637e-08,
        0.561392068862915,
        1.1546319456101628e-14
      ]
    },
    {
      "children": [
        25
      ],
      "name": "Bone.007_4",
      "rotation": [
        2.2960928991455631e-10,
        5.991289953044543e-08,
        -0.015125110745429993,
        0.999885618686676
      ],
      "translation": [
        8.568167686462402e-08,
        0.4081481099128723,
        -2.842170943040401e-14
      ]
    },
    {
      "name": "Bone.008_3",
      "rotation": [
        -3.8451915262971426e-11,
        -6.728597412575255e-08,
        0.004922009538859129,
        0.9999879002571106
      ],
      "translation": [
        1.4901160305669237e-08,
        0.4590906500816345,
        -8.881784197001252e-16
      ]
    },
    {
      "children": [
        27
      ],
      "name": "Bone.010_10",
      "rotation": [
        2.623805617218977e-09,
        2.638810947530601e-09,
        -0.7050879001617432,
        0.7091199159622192
      ],
      "scale": [
        1.0000001192092896,
        1.0000001192092896,
        1.0
      ],
      "translation": [
        0.4303820729255676,
        0.44210851192474365,
        0.0
      ]
    },
    {
      "children": [
        28
      ],
      "name": "Bone.011_9",
      "rotation": [
        -3.376967288204469e-05,
        0.003414338454604149,
        0.009889982640743256,
        0.9999452829360962
      ],
      "translation": [
        7.822473691021514e-08,
        0.5338414311408997,
        -9.31300370154986e-10
      ]
    },
    {
      "children": [
        29
      ],
      "name": "Bone.012_8",
      "rotation": [
        1.813457129173912e-05,
        -0.00341453542932868,
        -0.005310676526278257,
        0.999980092048645
      ],
      "scale": [
        0.9999998807907104,
        0.9999999403953552,
        1.0
      ],
      "translation": [
        1.341104507446289e-07,
        0.5228556394577026,
        -1.047736120085574e-09
      ]
    },
    {
      "name": "Bone.013_7",
      "rotation": [
        4.293693733892212e-10,
        1.1359205132066563e-07,
        -0.007857846096158028,
        0.9999691247940063
      ],
      "scale": [
        0.9999998807907104,
        0.9999998807907104,
        1.0
      ],
      "translation": [
        1.0058283805847168e-07,
        0.39406105875968933,
        -3.774758283725532e-15
      ]
    },
    {
      "children": [
        31
      ],
      "name": "Bone.015_15",
      "rotation": [
        0.5392032861709595,
        0.6611995697021484,
        0.4295382499694824,
        0.29592546820640564
      ],
      "scale": [
        0.9999998807907104,
        1.0000001192092896,
        1.0
      ],
      "translation": [
        0.20483048260211945,
        -0.2444981336593628,
        -0.5177186727523804
      ]
    },
    {
      "name": "Bone.016_14",
      "rotation": [
        -0.04331333935260773,
        0.005284465849399567,
        -0.007351994980126619,
        0.999020516872406
      ],
      "scale": [
        1.0,
        1.0000001192092896,
        1.0
      ],
      "translation": [
        -1.3843372670407916e-08,
        0.6212278008460999,
        4.803906605843622e-08
      ]
    },
    {
      "children": [
        33
      ],
      "name": "Bone.018_17",
      "rotation": [
        0.5160131454467773,
        -0.6307476162910461,
        -0.4375270903110504,
        0.3800763785839081
      ],
      "scale": [
        0.9999995827674866,
        0.9999998807907104,
        0.9999998211860657
      ],
      "translation": [
        -0.295542448759079,
        -0.2447568029165268,
        -0.4772973656654358
      ]
    },
    {
      "name": "Bone.019_16",
      "rotation": [
        -0.006344284396618605,
        -0.012067056261003017,
        -0.03629837557673454,
        0.9992480278015137
      ],
      "scale": [
        1.0000001192092896,
        0.9999998807907104,
        0.9999999403953552
      ],
      "translation": [
        2.3050233721733093e-08,
        0.5680924654006958,
        -5.21540641784668e-08
      ]
    }
  ],
  "samplers": [
    {
      "magFilter": 9729,
      "minFilter": 9987,
      "wrapS": 10497,
      "wrapT": 10497
    }
  ],
  "scene": 0,
  "scenes": [
    {
      "name": "Sketchfab_Scene",
      "nodes": [
        0
      ]
    }
  ],
  "skins": [
    {
      "inverseBindMatrices": 24,
      "joints": [
        5,
        18,
        19,
        20,
        21,
        22,
        23,
        24,
        25,
        26,
        27,
        28,
        29,
        30,
        31,
        32,
        33
      ],
      "skeleton": 5
    }
  ],
  "textures": [
    {
      "sampler": 0,
      "source": 0
    }
  ]
}
